<svg width="349" height="107" viewBox="0 0 349 107" fill="none" xmlns="http://www.w3.org/2000/svg">
<path d="M66.0244 104.325C66.0244 104.325 85.4134 100.015 86.7219 90.8211C87.4468 85.7006 84.3967 80.675 73.5975 77.0599L82.5602 77.0668C84.6885 74.2159 83.5792 66.307 81.071 63.3959C81.0641 63.3982 81.0664 63.3982 81.0594 63.3982C80.675 65.0934 79.3966 66.8443 79.3318 68.6229C79.2437 71.1218 77.9144 75.58 69.7137 76.0061C69.6257 76.013 69.54 76.0223 69.445 76.0246C61.682 76.3326 61.1841 79.7232 61.7446 81.9905C68.1412 83.3221 71.2607 84.3133 73.2478 84.9942C73.7851 85.1772 73.6021 85.9484 73.0347 85.8974C59.4448 84.6932 50.0538 84.7858 40.3801 85.5964C22.9712 87.0577 24.5391 79.8459 27.3368 74.4591L38.1499 76.6314C36.67 71.8884 36.5936 65.5404 36.5936 65.5404C37.7191 68.5349 40.5654 74.8342 42.1472 77.435L52.7865 79.5726C52.2956 75.3808 51.1376 72.9305 47.9717 65.86C43.4464 55.7556 41.1583 44.0717 45.2135 33.613C41.3296 37.3879 38.8192 41.1513 37.7631 42.7956C37.638 42.9902 37.3323 42.8674 37.3717 42.6382C41.1837 21.1232 65.3875 16.7484 78.7644 24.5947C78.7644 24.5947 78.4494 18.842 71.8814 15.1573C71.8212 15.1226 71.7031 15.0485 71.5549 14.9489C68.1528 13.3671 62.9002 11.7946 55.3202 12.8923C55.3202 12.8923 58.6736 10.0437 66.1912 9.52034C63.2198 6.12055 56.0566 0.916654 45.716 0.224191C5.2289 -2.48313 1.87079 39.7896 3.0056 52.1242C3.07276 52.8491 3.10982 53.5763 3.13529 54.3058L6.28264 48.3122C7.08164 46.6262 7.31323 47.0894 7.29007 48.4048C7.12101 58.4977 4.71013 67.0481 4.06398 69.7855L20.9796 73.1853L19.1917 74.5911C19.1917 74.5911 14.7821 73.4979 11.1137 73.5906C7.8019 73.6763 4.92088 74.8574 3.99914 77.977C3.41552 79.9548 3.89955 81.9372 5.00425 83.5352C7.44987 86.3931 11.82 89.5033 19.5969 90.798C19.5969 90.798 11.2086 93.4543 3.38542 89.3412C1.13665 90.483 -1.0357 95.5919 1.66236 99.4665C6.35676 106.208 22.2348 108.1 42.2213 100.15C62.9396 91.9119 65.941 103.251 66.0175 104.328L66.0244 104.325Z" fill="#F94917"/>
<path d="M71.5642 49.4285C72.1733 49.3104 72.875 49.2687 73.0348 49.3358L73.1066 49.3683C73.4285 49.5165 73.8338 49.7041 74.2553 49.7041C74.4429 49.7041 74.6328 49.667 74.8204 49.5744C75.1956 49.3914 75.4295 49.0162 75.4457 48.5739C75.4665 48.0551 75.1886 47.5387 74.7579 47.2862C74.1395 46.9273 73.2942 46.9782 72.4952 47.4206C71.9185 47.7378 71.4276 48.1918 71.0732 48.736C70.9736 48.8912 70.9759 49.0857 71.0825 49.2386C71.189 49.3891 71.3835 49.4632 71.5619 49.4285H71.5642Z" fill="#F94917"/>
<path d="M76.5458 48.1848C76.4161 48.3168 76.2123 48.5044 76.1359 48.7939C76.0409 49.1621 76.1984 49.5304 76.5458 49.7573C76.7589 49.894 77.009 49.9635 77.2568 49.9635C77.5046 49.9635 77.7478 49.894 77.94 49.7573C78.5444 49.3243 78.6348 48.56 78.6903 48.1038C78.7714 47.3071 77.6713 47.05 76.5458 48.1871V48.1848Z" fill="#F94917"/>
<path d="M76.2909 60.4245C75.7073 60.5241 75.0194 60.5889 74.2529 60.5658C73.2917 60.538 72.4557 60.3782 71.7771 60.1906C71.3487 60.0725 70.9735 60.5079 71.1634 60.9108C71.7493 62.1568 73.0231 62.9442 74.3223 62.8423C75.3552 62.7613 76.2932 62.129 76.8305 61.1911C77.0459 60.8136 76.7193 60.3527 76.2909 60.4245Z" fill="#F94917"/>
<path d="M77.5023 59.2318C77.5023 59.2318 77.5185 59.2133 77.5301 59.2064C78.4194 58.6112 78.4611 57.8585 78.3731 56.9553C78.3221 56.7469 78.255 56.5384 78.1832 56.3393C77.889 56.0637 77.6088 55.7834 77.0321 55.6259C76.1961 55.3967 76.0942 55.7904 74.7695 55.663C73.4633 55.5356 73.4077 55.135 72.574 55.2044C71.6314 55.2832 71.5781 55.795 70.0542 56.4481C69.4938 56.689 68.9959 56.8997 68.4748 57.0109C67.5947 57.3536 66.6637 57.5528 65.6887 57.5829C65.5498 57.5968 65.4108 57.613 65.2695 57.6223C65.6748 58.2846 66.4692 58.595 66.9856 58.7525C69.4011 59.4982 71.3442 58.7131 74.5124 58.9701C75.5731 59.0558 76.3698 59.2249 77.0368 59.3476C77.1966 59.3222 77.3494 59.2828 77.4976 59.2342L77.5023 59.2318Z" fill="#F94917"/>
<path d="M59.2341 37.0105C58.9979 37.0869 58.852 37.3301 58.8913 37.5732C58.9469 37.9206 59.0581 38.2263 59.2364 38.488C59.607 39.0369 60.2022 39.4654 61.0776 39.5233C61.8418 39.5742 62.2402 39.4491 62.7497 39.0392C63.2939 38.6061 63.6853 37.9461 63.8451 37.2328C64.2527 37.5408 64.7576 38.2657 65.457 40.086C65.5265 40.2643 65.7048 40.3825 65.8993 40.3825C65.9132 40.3825 65.9271 40.3825 65.941 40.3801C66.1541 40.3616 66.3255 40.2088 66.3602 40.005C66.7586 37.8141 65.6122 35.7784 64.5121 34.7038C62.8771 33.1058 60.5889 32.6264 58.3957 33.4161C55.6212 34.5486 53.9121 36.897 53.8959 37.6219C53.8912 37.8257 54.0117 38.0109 54.2108 38.0804C54.329 38.1198 55.0816 38.3607 56.8672 37.1679C57.0108 37.0707 57.1521 36.9966 57.2864 36.9364C60.6213 34.7246 60.6098 37.2027 60.6098 37.2027C60.0354 36.8622 59.5491 36.9062 59.2341 37.0105Z" fill="#F94917"/>
<path d="M75.3298 36.7766C75.9968 37.0753 76.2978 37.9646 76.2978 37.9646C76.2909 37.96 76.2839 37.9554 76.277 37.9507C75.5289 37.5154 74.5794 38.1592 74.7137 39.0161C74.8064 39.6182 75.119 40.1393 75.617 40.5168C75.9736 40.7878 76.5016 40.9383 76.8977 40.9383C77.3585 40.9383 77.8541 40.7855 78.2316 40.3917C78.8106 39.7873 78.8685 39.1458 78.9449 38.9512C79.1418 39.4468 79.3039 39.9587 79.4105 40.4751C79.4382 40.6094 79.5309 40.7229 79.6606 40.7785C79.7903 40.8364 79.9408 40.8295 80.0612 40.7623C80.4318 40.5585 80.4619 40.1347 80.4735 39.9772C80.5314 39.1458 80.5638 38.187 80.2002 37.3092C79.7972 36.3389 79.0005 35.7854 78.0163 35.6927C76.7124 35.5723 75.8393 36.142 75.3298 36.7789V36.7766Z" fill="#F94917"/>
<path d="M58.5278 103.663C58.5996 103.603 58.6644 103.526 58.7223 103.436C58.7825 103.346 58.8126 103.228 58.8126 103.086C58.8126 102.968 58.7872 102.852 58.7408 102.746C58.6899 102.639 58.625 102.547 58.537 102.463C58.449 102.38 58.3471 102.315 58.2267 102.269C58.1063 102.22 57.9789 102.197 57.8376 102.197H56.7422V104.872H57.4346V103.978H57.6361L58.2429 104.872H59.0141L58.2429 103.816C58.3448 103.779 58.4421 103.728 58.5278 103.663ZM58.0738 103.288C58.0136 103.343 57.9233 103.369 57.7983 103.369H57.4346V102.801H57.7983C57.9233 102.801 58.0136 102.827 58.0738 102.88C58.1364 102.936 58.1642 103.003 58.1642 103.084C58.1642 103.165 58.1364 103.232 58.0738 103.288Z" fill="#F94917"/>
<path d="M60.1118 102.512C59.9798 102.195 59.7968 101.921 59.5629 101.685C59.3267 101.451 59.0511 101.266 58.7338 101.134C58.4189 101.002 58.0784 100.935 57.7171 100.935C57.3559 100.935 57.0085 101.002 56.6958 101.134C56.3832 101.268 56.1076 101.451 55.8737 101.685C55.6374 101.921 55.4545 102.195 55.3225 102.512C55.1904 102.829 55.1233 103.17 55.1233 103.531C55.1233 103.892 55.1904 104.24 55.3225 104.552C55.4545 104.867 55.6374 105.141 55.8737 105.374C56.1076 105.608 56.3832 105.791 56.6958 105.926C57.0085 106.06 57.3489 106.125 57.7171 106.125C58.0854 106.125 58.4189 106.06 58.7338 105.926C59.0511 105.791 59.3267 105.608 59.5629 105.374C59.7968 105.141 59.9798 104.867 60.1118 104.552C60.2461 104.24 60.311 103.897 60.311 103.531C60.311 103.165 60.2438 102.829 60.1118 102.512ZM59.4726 104.298C59.373 104.531 59.2364 104.74 59.0627 104.914C58.8913 105.09 58.6875 105.226 58.4582 105.328C58.2289 105.43 57.9812 105.476 57.7171 105.476C57.4531 105.476 57.2053 105.428 56.9737 105.328C56.7444 105.229 56.543 105.09 56.3693 104.914C56.1956 104.738 56.0589 104.531 55.9593 104.298C55.8598 104.064 55.8111 103.807 55.8111 103.531C55.8111 103.255 55.8621 102.998 55.9593 102.762C56.0612 102.528 56.1956 102.322 56.3693 102.146C56.5406 101.97 56.7444 101.833 56.9737 101.734C57.2053 101.634 57.4531 101.583 57.7171 101.583C57.9812 101.583 58.2289 101.634 58.4582 101.734C58.6875 101.833 58.889 101.97 59.0627 102.146C59.2364 102.322 59.373 102.528 59.4726 102.762C59.5722 102.998 59.6231 103.253 59.6231 103.531C59.6231 103.809 59.5722 104.061 59.4726 104.298Z" fill="#F94917"/>
<path d="M338.197 52.8935L348.186 39.7205H342.236L333.313 51.6221V39.7205H328.211V66.495H333.313V54.3804L342.873 66.495H348.823L338.197 52.8935Z" fill="#F94917"/>
<path d="M272.742 39.7205L262.756 66.495H268.069L269.982 60.9692H280.181L282.094 66.495H287.405L277.418 39.7205H272.742ZM271.679 56.2933L275.081 46.5178L278.481 56.2933H271.682H271.679Z" fill="#F94917"/>
<path d="M157.099 56.2933C157.099 57.9932 156.603 59.3388 155.609 60.3323C154.618 61.3235 153.273 61.8191 151.573 61.8191C149.873 61.8191 148.527 61.3235 147.536 60.3323C146.543 59.3411 146.047 57.9955 146.047 56.2933V39.7205H140.947V56.2933C140.947 57.7964 141.209 59.1767 141.732 60.4365C142.258 61.6987 142.992 62.7965 143.942 63.7298C144.889 64.6654 146.017 65.3949 147.321 65.9183C148.625 66.4417 150.04 66.7058 151.57 66.7058C153.101 66.7058 154.516 66.4417 155.82 65.9183C157.122 65.3926 158.247 64.6631 159.199 63.7298C160.146 62.7965 160.883 61.6964 161.409 60.4365C161.932 59.1767 162.196 57.7964 162.196 56.2933V39.7205H157.096V56.2933H157.099Z" fill="#F94917"/>
<path d="M121.572 56.9325H128.585C128.244 57.8403 127.777 58.6601 127.181 59.3989C126.672 60.0219 125.975 60.5824 125.097 61.078C124.217 61.5736 123.112 61.8214 121.783 61.8214C120.706 61.8214 119.694 61.6083 118.744 61.1845C117.797 60.7607 116.966 60.1585 116.257 59.3781C115.548 58.5976 114.983 57.6782 114.557 56.6152C114.133 55.5545 113.92 54.3849 113.92 53.1089C113.92 51.8328 114.133 50.6656 114.557 49.6025C114.981 48.5418 115.548 47.6201 116.257 46.8396C116.966 46.0615 117.795 45.4593 118.744 45.0355C119.694 44.6094 120.706 44.3963 121.783 44.3963C122.688 44.3963 123.511 44.533 124.247 44.8016C124.984 45.0726 125.63 45.4246 126.181 45.8646C126.734 46.3047 127.193 46.8003 127.561 47.3538C127.929 47.905 128.198 48.477 128.369 49.0745H133.682C133.372 47.7984 132.86 46.5803 132.151 45.42C131.443 44.2574 130.579 43.2453 129.56 42.3815C128.541 41.5176 127.371 40.8228 126.054 40.2994C124.736 39.776 123.314 39.5143 121.783 39.5143C120.027 39.5143 118.362 39.8594 116.79 40.5519C115.217 41.249 113.844 42.2101 112.667 43.4445C111.491 44.6765 110.558 46.1194 109.863 47.7776C109.17 49.4335 108.823 51.2121 108.823 53.1112C108.823 55.0102 109.17 56.8213 109.863 58.4656C110.558 60.1076 111.493 61.5481 112.667 62.7779C113.842 64.0099 115.215 64.9734 116.79 65.6682C118.362 66.3629 120.027 66.7103 121.783 66.7103C122.973 66.7103 124.036 66.5667 124.97 66.2842C125.903 65.9993 126.697 65.689 127.35 65.3486C128.115 64.9525 128.807 64.4847 129.432 63.9474L130.495 66.4996H134.106V52.4743H121.57V56.9371L121.572 56.9325Z" fill="#F94917"/>
<path d="M312.604 57.1456L307.078 39.7205H304.105L298.579 57.1456L293.266 39.7205H288.169L296.668 66.495H300.279L305.591 49.7068L310.904 66.495H314.515L323.014 39.7205H317.915L312.604 57.1456Z" fill="#F94917"/>
<path d="M188.94 39.7205H183.843V66.495H201.477V61.6061H188.94V39.7205Z" fill="#F94917"/>
<path d="M225.016 43.7155C223.798 42.4973 222.396 41.5293 220.81 40.8044C219.224 40.0795 217.551 39.7205 215.794 39.7205H207.294V66.495H215.794C217.549 66.495 219.224 66.1314 220.81 65.4088C222.396 64.6886 223.798 63.7182 225.016 62.5C226.234 61.2795 227.197 59.8645 227.906 58.248C228.615 56.6361 228.969 54.92 228.969 53.1066C228.969 51.2932 228.615 49.5794 227.906 47.9652C227.197 46.351 226.234 44.9314 225.016 43.7155ZM223.209 56.4022C222.769 57.4351 222.174 58.336 221.424 59.1002C220.673 59.8668 219.809 60.4736 218.832 60.9275C217.855 61.3791 216.84 61.6061 215.791 61.6061H212.392V44.6071H215.791C216.84 44.6071 217.853 44.8341 218.832 45.288C219.809 45.7396 220.673 46.3487 221.424 47.1153C222.174 47.8795 222.769 48.7781 223.209 49.8134C223.649 50.8463 223.867 51.944 223.867 53.1066C223.867 54.2692 223.647 55.367 223.209 56.3999V56.4022Z" fill="#F94917"/>
<path d="M252.23 50.346H240.968V39.7205H235.868V66.495H240.968V55.2326H252.23V66.495H257.33V39.7205H252.23V50.346Z" fill="#F94917"/>
<path d="M175.288 39.7205H170.188V66.495H175.288V39.7205Z" fill="#F94917"/>
</svg>
